<svg width="180" height="180" viewBox="0 0 180 180" fill="none" xmlns="http://www.w3.org/2000/svg">
<rect width="180" height="180" fill="#141a14"/>
<path d="M149.719 55.5938C149.719 55.5938 116.812 45.9375 99 71.7188C94.5 78.3281 90 98.4375 90 98.4375C90 98.4375 92.25 74.25 99 67.5C108 58.5 135 54 135 54L130.5 45L112.5 49.5C112.5 49.5 83.25 54 74.25 76.5C65.25 99 63 135 63 135C63 135 67.5 108 81 94.5C94.5 81 117 81 117 81L117 90L135 85.5L121.5 76.5C121.5 76.5 131.625 90.4219 122.625 102.891C113.625 115.359 90 135 90 135C90 135 112.5 121.5 126 108C139.5 94.5 148.5 76.5 148.5 76.5L157.5 81L153 63L149.719 55.5938Z" fill="#36A236"/>
<path d="M90 98.4375C90 98.4375 81 108 67.5 108C54 108 45 94.5 45 94.5L36 99L40.5 112.5L45 117C45 117 58.5 130.5 67.5 121.5C76.5 112.5 90 98.4375 90 98.4375Z" fill="#36A236"/>
</svg>