<svg width="192" height="192" viewBox="0 0 192 192" fill="none" xmlns="http://www.w3.org/2000/svg">
<rect width="192" height="192" fill="#141a14"/>
<path d="M159.274 59.3C159.274 59.3 124.92 49.16 106.38 76.28C101.64 83.28 96.8 104.7 96.8 104.7C96.8 104.7 99.14 79.4 106.38 62.2C115.78 52.8 143.6 48 143.6 48L138.84 38.4L119.28 43.2C119.28 43.2 88.08 48 78.68 81.6C69.28 104.4 66.8 144 66.8 144C66.8 144 71.6 114 85.88 99.6C99.08 85.2 124.4 85.2 124.4 85.2L124.4 96L143.6 90.4L129.2 80.8C129.2 80.8 140.01 96.19 130.63 109.21C121.25 122.23 96.8 144 96.8 144C96.8 144 119.6 128.4 134.4 114C149.2 99.6 158.4 81.6 158.4 81.6L168 86.4L163.2 67.2L159.274 59.3Z" fill="#36A236"/>
<path d="M96.8 104.7C96.8 104.7 86.6 115.5 72.2 115.5C57.8 115.5 47.6 99.6 47.6 99.6L37.2 105.6L42 120L47.6 124.8C47.6 124.8 62.6 139.2 72.2 129.6C81.8 120 96.8 104.7 96.8 104.7Z" fill="#36A236"/>
</svg>