<svg width="512" height="512" viewBox="0 0 512 512" fill="none" xmlns="http://www.w3.org/2000/svg">
<rect width="512" height="512" fill="#141a14"/>
<path d="M424.73 158.133C424.73 158.133 333.121 131.093 283.681 203.413C271.041 222.08 258.134 279.2 258.134 279.2C258.134 279.2 264.374 211.733 283.681 165.867C308.748 140.8 382.934 128 382.934 128L370.241 102.4L318.081 115.2C318.081 115.2 234.881 128 209.814 217.6C184.748 278.4 178.134 384 178.134 384C178.134 384 190.934 304 229.014 265.6C267.094 227.2 331.734 227.2 331.734 227.2L331.734 256L382.934 241.067L344.534 215.467C344.534 215.467 373.357 256.507 348.337 291.227C323.317 325.947 258.134 384 258.134 384C258.134 384 318.934 342.4 358.401 304C397.868 265.6 422.401 217.6 422.401 217.6L448 230.4L435.2 179.2L424.73 158.133Z" fill="#36A236"/>
<path d="M258.134 279.2C258.134 279.2 230.934 308 192.534 308C154.134 308 126.934 265.6 126.934 265.6L99.2008 281.6L112.001 320L126.934 332.8C126.934 332.8 166.934 371.2 192.534 345.6C218.134 320 258.134 279.2 258.134 279.2Z" fill="#36A236"/>
</svg>